<svg width="25" height="14" viewBox="0 0 25 14" fill="none" xmlns="http://www.w3.org/2000/svg">
<path d="M13.616 13.3619L23.586 3.1028C24.7626 1.89387 23.8063 -2.38419e-07 22.0206 -2.38419e-07L2.0806 -2.38419e-07C1.68096 -0.000308698 1.28969 0.103092 0.95365 0.297818C0.617608 0.492545 0.351039 0.770343 0.185865 1.09795C0.0206901 1.42555 -0.0360874 1.78907 0.0223312 2.14497C0.0807498 2.50088 0.251888 2.83408 0.515252 3.10467L10.4853 13.36C10.6804 13.561 10.921 13.7221 11.191 13.8325C11.461 13.9429 11.7541 14 12.0506 14C12.3471 14 12.6402 13.9429 12.9102 13.8325C13.1802 13.7221 13.4209 13.561 13.616 13.36V13.3619Z" fill="black"/>
</svg>
