<svg version="1.1" id="Layer_1" xmlns="http://www.w3.org/2000/svg" xmlns:xlink="http://www.w3.org/1999/xlink" x="0px" y="0px"
	 width="100%" viewBox="0 0 938 604" enable-background="new 0 0 938 604" xml:space="preserve">
<path fill="#F2F2F2" opacity="1.000000" stroke="none" 
	d="
M939.000000,124.000015 
	C939.000000,243.689316 939.000000,363.378632 938.624756,483.607056 
	C937.840088,484.800293 937.179077,485.411133 937.057800,486.114929 
	C934.009277,503.816803 927.909058,520.350159 918.657959,535.778748 
	C906.645630,555.812012 890.711609,571.899109 870.827209,584.083618 
	C855.231750,593.640015 838.479919,600.162292 820.365723,603.085449 
	C819.496765,603.225647 818.784973,604.339539 818.000000,605.000000 
	C782.644043,605.000000 747.288086,605.000000 711.467957,604.572876 
	C711.335693,601.692017 711.696899,599.241760 711.994446,596.783813 
	C713.146301,587.270325 713.674500,577.634949 715.530334,568.261841 
	C721.084290,540.211609 729.428040,512.734924 732.249207,484.112610 
	C733.453064,471.898438 735.157837,459.785522 732.391296,447.582001 
	C732.149109,446.513794 732.686707,445.268799 733.046753,442.881897 
	C737.634155,451.516571 737.760681,453.397583 738.108582,466.036499 
	C738.261963,471.609528 739.071899,477.292419 740.532227,482.667755 
	C742.194702,488.787018 746.950256,489.640411 750.621582,484.679321 
	C752.316040,482.389557 753.787720,479.286652 753.816162,476.536438 
	C753.894714,468.930359 753.558411,461.263092 752.558167,453.729889 
	C752.140076,450.580963 752.538269,449.461212 755.319458,448.131317 
	C757.192261,447.235748 759.680725,444.875488 759.650330,443.211365 
	C759.487549,434.290894 758.667725,425.379608 757.982605,416.472290 
	C757.335510,408.058899 756.641174,399.647980 755.847473,391.247314 
	C754.619385,378.248718 753.156677,365.271088 752.044189,352.263153 
	C751.155457,341.871002 750.770264,331.436432 749.931335,321.039246 
	C748.375122,301.752747 746.705017,282.474884 744.953613,263.205109 
	C744.576904,259.060974 743.866211,254.839355 739.425659,252.745438 
	C727.697571,247.215103 716.020630,241.570862 704.207703,236.227631 
	C695.927979,232.482559 693.157043,220.160278 699.107117,213.258377 
	C700.527710,211.610626 701.265259,209.274948 701.988464,207.144150 
	C703.984619,201.262863 706.021240,195.379623 707.616760,189.384064 
	C708.558655,185.845139 709.294556,182.044693 709.015442,178.447815 
	C708.755005,175.091492 707.174866,171.792480 705.919800,168.567780 
	C703.284424,161.796295 701.232727,154.356232 692.372498,153.093185 
	C687.174133,152.352127 681.936401,151.561066 676.703369,151.458405 
	C666.795227,151.264008 657.519531,152.375183 650.761292,161.484924 
	C645.710327,168.293289 644.035339,183.661896 649.211914,189.631058 
	C655.580627,196.974808 659.943237,205.090424 661.560730,214.857666 
	C663.203186,224.775146 660.881042,231.509827 651.850342,236.474625 
	C640.358276,242.792542 628.620544,248.674438 616.872437,254.510101 
	C612.493469,256.685272 609.756897,259.773438 609.002441,264.573914 
	C608.566284,267.349426 608.142334,270.131348 607.854919,272.925018 
	C605.882446,292.097351 603.831055,311.262726 602.047668,330.452911 
	C601.098022,340.671539 600.630859,350.935059 599.949768,361.178589 
	C598.631714,381.000549 596.814331,400.806946 596.192017,420.650757 
	C595.830078,432.192078 597.386719,443.793518 597.784729,455.587708 
	C587.016968,458.405060 576.527466,460.937195 566.083740,463.645721 
	C563.441772,464.330841 562.039917,463.949860 560.554749,461.331909 
	C556.635986,454.423889 552.760986,447.552216 549.344910,440.339630 
	C546.119019,433.528687 541.925537,426.774445 536.706299,421.406525 
	C529.499084,413.994080 523.794800,405.773438 519.261963,396.697144 
	C511.922028,381.999908 504.932404,367.126312 497.913879,352.270966 
	C496.302856,348.861053 495.175110,345.222748 493.876160,341.188660 
	C494.887238,331.488739 495.675110,322.267426 496.859528,313.097351 
	C497.871490,305.262695 497.490540,297.817078 491.980347,291.636475 
	C489.849457,289.246307 490.014587,287.810791 491.968658,285.340210 
	C498.137054,277.541534 498.134247,273.669434 492.717377,265.152039 
	C489.339233,259.840302 486.938995,254.239822 488.043884,247.777939 
	C488.656433,244.195541 489.625305,240.673370 490.453094,237.128601 
	C494.023895,221.838013 492.278351,207.571136 482.829773,194.539871 
	C478.703735,188.849319 473.528687,187.387726 466.785980,188.060272 
	C461.826782,188.554962 456.594147,188.269119 451.726929,187.210846 
	C446.093689,185.985992 440.840302,183.031998 435.211243,181.764740 
	C430.229919,180.643311 424.936462,177.817154 420.093323,183.454605 
	C416.511292,187.624069 411.943054,191.119675 407.326569,194.179855 
	C402.385620,197.455078 396.681091,199.563126 391.654327,202.727737 
	C383.756378,207.699936 381.449066,214.102280 386.371002,221.698532 
	C389.900238,227.145432 388.304413,230.839355 385.885162,235.280136 
	C385.009796,236.887009 383.779510,238.473328 383.504211,240.195786 
	C383.033447,243.141418 382.334656,246.491302 383.273071,249.121460 
	C384.803009,253.409653 387.564545,257.260162 389.821838,261.286713 
	C392.673584,266.373688 390.022369,272.447693 384.480194,274.110718 
	C379.559509,275.587311 374.541382,277.018707 369.957855,279.268005 
	C364.321564,282.033905 358.217865,285.196930 357.213226,292.232635 
	C354.855896,308.741699 353.283691,325.364899 350.801086,341.852631 
	C350.247131,345.531555 352.076050,350.187592 347.608704,352.794434 
	C345.744629,348.045441 344.019592,343.567474 342.602539,338.994080 
	C338.993561,327.346497 330.570435,319.941254 320.021912,315.414001 
	C305.933289,309.367340 291.338837,304.499237 276.683319,298.846466 
	C275.945953,294.633850 274.790863,290.631531 275.168213,286.779327 
	C276.038086,277.899261 277.840057,269.114288 278.888794,260.246368 
	C279.452118,255.482803 282.069458,253.292023 286.183777,251.384109 
	C310.883514,239.930161 323.916656,214.204514 319.422424,186.781738 
	C317.540070,175.296112 311.985077,165.594070 304.773804,156.428131 
	C304.493805,155.760345 304.243439,155.346588 303.985107,154.961823 
	C303.977203,154.990829 304.035431,155.005188 304.027649,154.587952 
	C303.748749,152.541901 303.612061,150.877090 303.186981,149.289520 
	C291.952850,107.331543 248.972382,80.721657 204.935684,83.843864 
	C194.285599,84.598953 183.783539,87.441689 172.812698,89.395798 
	C172.567566,88.983582 171.974045,88.002388 171.396576,87.011848 
	C160.225922,67.850739 139.997070,58.412811 118.080208,61.817184 
	C107.621758,63.441708 99.271118,68.928543 91.091156,75.090820 
	C90.922546,74.923370 90.582344,74.591515 90.607666,74.218994 
	C95.565514,57.440739 106.908180,47.049049 123.395256,40.182133 
	C92.856972,42.681717 71.441338,70.357033 76.378151,99.330948 
	C76.678482,101.093613 76.756393,102.962212 76.542740,104.733879 
	C74.424294,122.301201 79.608772,137.249603 92.556656,149.356445 
	C95.420326,152.034103 98.682961,154.285095 101.761887,156.732544 
	C78.346878,152.385864 64.894295,137.854416 59.386623,113.638962 
	C57.281082,148.018799 78.019325,168.618866 115.790077,171.160629 
	C115.883453,172.233414 115.997757,173.353958 116.076241,174.476974 
	C117.489876,194.706100 125.341072,212.095261 139.356186,226.670441 
	C159.725327,247.853546 185.071167,256.677856 214.004318,256.784332 
	C210.917313,266.242615 207.840286,275.316803 204.358368,284.340088 
	C196.652985,282.571289 189.760300,283.485352 183.352280,287.494049 
	C170.696014,295.411499 158.209076,303.616394 145.347610,311.184967 
	C126.918442,322.030029 114.073662,337.013153 107.797104,357.695892 
	C103.685638,371.244110 102.393410,385.062622 102.106598,399.055542 
	C101.218903,442.364105 102.846603,485.573608 108.194992,528.577271 
	C109.441055,538.596252 111.871086,548.485840 114.117241,558.352783 
	C114.868484,561.652832 116.261932,565.205261 120.941101,565.342041 
	C121.289253,569.184204 121.604248,572.583313 121.626038,576.167358 
	C117.866257,584.570068 114.399666,592.787781 110.527039,601.002808 
	C87.188927,596.198242 67.144096,585.423828 49.780182,570.085999 
	C24.494530,547.750854 8.433222,519.934509 2.916164,486.356567 
	C2.773703,485.489502 1.660499,484.781921 1.000006,484.000000 
	C1.000000,363.310699 1.000000,242.621384 1.378014,121.388969 
	C2.107837,120.516228 2.715741,120.226944 2.774924,119.851227 
	C6.877908,93.802597 17.718950,70.738457 34.842587,50.910507 
	C57.290695,24.917217 85.665375,8.862710 119.642853,2.949475 
	C120.838768,2.741344 121.884354,1.669361 123.000000,0.999999 
	C354.022614,1.000000 585.045227,1.000000 816.611450,1.379191 
	C817.812927,2.163476 818.429260,2.821423 819.134766,2.937387 
	C853.746155,8.626768 882.402405,24.691240 905.139832,51.527134 
	C922.322754,71.807381 932.867371,94.966805 937.065552,121.136780 
	C937.231018,122.168098 938.333923,123.049019 939.000000,124.000015 
z"/>
<path fill="#FFFFFF" opacity="1.000000" stroke="none" 
	d="
M598.080017,455.367920 
	C597.386719,443.793518 595.830078,432.192078 596.192017,420.650757 
	C596.814331,400.806946 598.631714,381.000549 599.949768,361.178589 
	C600.630859,350.935059 601.098022,340.671539 602.047668,330.452911 
	C603.831055,311.262726 605.882446,292.097351 607.854919,272.925018 
	C608.142334,270.131348 608.566284,267.349426 609.002441,264.573914 
	C609.756897,259.773438 612.493469,256.685272 616.872437,254.510101 
	C628.620544,248.674438 640.358276,242.792542 651.850342,236.474625 
	C660.881042,231.509827 663.203186,224.775146 661.560730,214.857666 
	C659.943237,205.090424 655.580627,196.974808 649.211914,189.631058 
	C644.035339,183.661896 645.710327,168.293289 650.761292,161.484924 
	C657.519531,152.375183 666.795227,151.264008 676.703369,151.458405 
	C681.936401,151.561066 687.174133,152.352127 692.372498,153.093185 
	C701.232727,154.356232 703.284424,161.796295 705.919800,168.567780 
	C707.174866,171.792480 708.755005,175.091492 709.015442,178.447815 
	C709.294556,182.044693 708.558655,185.845139 707.616760,189.384064 
	C706.021240,195.379623 703.984619,201.262863 701.988464,207.144150 
	C701.265259,209.274948 700.527710,211.610626 699.107117,213.258377 
	C693.157043,220.160278 695.927979,232.482559 704.207703,236.227631 
	C716.020630,241.570862 727.697571,247.215103 739.425659,252.745438 
	C743.866211,254.839355 744.576904,259.060974 744.953613,263.205109 
	C746.705017,282.474884 748.375122,301.752747 749.931335,321.039246 
	C750.770264,331.436432 751.155457,341.871002 752.044189,352.263153 
	C753.156677,365.271088 754.619385,378.248718 755.847473,391.247314 
	C756.641174,399.647980 757.335510,408.058899 757.982605,416.472290 
	C758.667725,425.379608 759.487549,434.290894 759.650330,443.211365 
	C759.680725,444.875488 757.192261,447.235748 755.319458,448.131317 
	C752.538269,449.461212 752.140076,450.580963 752.558167,453.729889 
	C753.558411,461.263092 753.894714,468.930359 753.816162,476.536438 
	C753.787720,479.286652 752.316040,482.389557 750.621582,484.679321 
	C746.950256,489.640411 742.194702,488.787018 740.532227,482.667755 
	C739.071899,477.292419 738.261963,471.609528 738.108582,466.036499 
	C737.760681,453.397583 737.634155,451.516571 733.046753,442.881897 
	C732.686707,445.268799 732.149109,446.513794 732.391296,447.582001 
	C735.157837,459.785522 733.453064,471.898438 732.249207,484.112610 
	C729.428040,512.734924 721.084290,540.211609 715.530334,568.261841 
	C713.674500,577.634949 713.146301,587.270325 711.994446,596.783813 
	C711.696899,599.241760 711.335693,601.692017 711.001892,604.572876 
	C701.312439,605.000000 691.624878,605.000000 681.448242,604.550171 
	C681.281189,599.818481 681.920532,595.532288 681.863770,591.255371 
	C681.711914,579.822510 681.522522,568.377747 680.832703,556.968933 
	C680.408508,549.953186 679.037659,542.994751 678.072327,535.593628 
	C682.141418,508.229645 686.345276,481.299042 690.212341,454.320160 
	C690.906982,449.474121 692.701294,447.029175 697.657654,446.584442 
	C700.521729,446.327484 703.305176,445.172455 706.431335,444.340027 
	C705.409302,439.258514 704.475586,434.616455 703.455627,429.545563 
	C689.790771,432.914673 676.600891,436.185120 663.401489,439.416840 
	C641.630859,444.747040 619.854187,450.052216 598.080017,455.367920 
z"/>
<path fill="#FFFFFF" opacity="1.000000" stroke="none" 
	d="
M939.000000,123.531357 
	C938.333923,123.049019 937.231018,122.168098 937.065552,121.136780 
	C932.867371,94.966805 922.322754,71.807381 905.139832,51.527134 
	C882.402405,24.691240 853.746155,8.626768 819.134766,2.937387 
	C818.429260,2.821423 817.812927,2.163476 817.077515,1.379191 
	C857.593933,1.000000 898.187866,1.000000 939.000000,1.000000 
	C939.000000,41.687302 939.000000,82.374992 939.000000,123.531357 
z"/>
<path fill="#FFFFFF" opacity="1.000000" stroke="none" 
	d="
M818.468628,605.000000 
	C818.784973,604.339539 819.496765,603.225647 820.365723,603.085449 
	C838.479919,600.162292 855.231750,593.640015 870.827209,584.083618 
	C890.711609,571.899109 906.645630,555.812012 918.657959,535.778748 
	C927.909058,520.350159 934.009277,503.816803 937.057800,486.114929 
	C937.179077,485.411133 937.840088,484.800293 938.624756,484.073090 
	C939.000000,524.260315 939.000000,564.520569 939.000000,605.000000 
	C898.979370,605.000000 858.958374,605.000000 818.468628,605.000000 
z"/>
<path fill="#FFFFFF" opacity="1.000000" stroke="none" 
	d="
M122.531342,0.999999 
	C121.884354,1.669361 120.838768,2.741344 119.642853,2.949475 
	C85.665375,8.862710 57.290695,24.917217 34.842587,50.910507 
	C17.718950,70.738457 6.877908,93.802597 2.774924,119.851227 
	C2.715741,120.226944 2.107837,120.516228 1.378014,120.922928 
	C1.000000,81.072426 1.000000,41.144859 1.000000,1.000000 
	C41.353970,1.000000 81.708328,1.000000 122.531342,0.999999 
z"/>
<path fill="#FFFFFF" opacity="1.000000" stroke="none" 
	d="
M1.000006,484.468658 
	C1.660499,484.781921 2.773703,485.489502 2.916164,486.356567 
	C8.433222,519.934509 24.494530,547.750854 49.780182,570.085999 
	C67.144096,585.423828 87.188927,596.198242 110.542778,601.451904 
	C113.954826,602.455017 116.945091,603.006287 120.298058,603.726196 
	C124.099571,603.956848 127.538376,604.018799 130.987183,604.310486 
	C130.997177,604.540222 131.000000,605.000000 131.000000,605.000000 
	C87.742317,605.000000 44.484634,605.000000 1.000000,605.000000 
	C1.000000,564.979370 1.000000,524.958374 1.000006,484.468658 
z"/>
<path fill="#FEFEFE" opacity="1.000000" stroke="none" 
	d="
M386.000000,605.000000 
	C374.312439,605.000000 362.624878,605.000000 350.455719,604.594116 
	C345.386749,587.473267 345.116638,570.238159 344.115417,553.124817 
	C343.702179,546.062256 344.615753,538.922058 345.217773,531.584595 
	C352.238434,529.766602 358.967163,528.181274 366.119263,526.496094 
	C370.308716,552.486572 374.396881,577.848694 378.490601,603.245117 
	C381.358215,603.436462 383.664978,603.590393 385.981445,604.058105 
	C385.994110,604.581299 385.997040,604.790649 386.000000,605.000000 
z"/>
<path fill="#DBDADE" opacity="1.000000" stroke="none" 
	d="
M386.468658,605.000000 
	C385.997040,604.790649 385.994110,604.581299 386.353363,603.892822 
	C388.546844,603.384949 390.378174,603.331360 392.209473,603.331238 
	C470.174896,603.327087 548.140320,603.328613 626.105774,603.326904 
	C638.600037,603.326599 651.094971,603.246033 663.588135,603.359497 
	C666.439026,603.385315 667.725891,602.645996 668.071655,599.575928 
	C668.816040,592.967224 669.969360,586.402832 671.020203,579.830688 
	C673.356201,565.220642 675.732178,550.616882 678.091919,536.010559 
	C679.037659,542.994751 680.408508,549.953186 680.832703,556.968933 
	C681.522522,568.377747 681.711914,579.822510 681.863770,591.255371 
	C681.920532,595.532288 681.281189,599.818481 680.979614,604.550171 
	C582.979126,605.000000 484.958221,605.000000 386.468658,605.000000 
z"/>
<path fill="#E9E8F2" opacity="1.000000" stroke="none" 
	d="
M344.925873,531.817139 
	C344.615753,538.922058 343.702179,546.062256 344.115417,553.124817 
	C345.116638,570.238159 345.386749,587.473267 349.987061,604.594116 
	C277.312439,605.000000 204.624878,605.000000 131.468658,605.000000 
	C131.000000,605.000000 130.997177,604.540222 131.456146,604.264832 
	C136.744171,603.984741 141.573303,603.995972 146.402267,603.972412 
	C161.871613,603.896912 177.340866,603.808472 193.118439,603.629517 
	C193.609161,603.419983 193.791595,603.305969 194.446304,603.220825 
	C234.458527,603.254517 273.998474,603.258850 313.538452,603.265015 
	C317.680054,603.265686 321.821625,603.277954 326.395203,603.317017 
	C330.397827,603.928101 331.846283,602.420715 332.186157,598.800171 
	C332.665588,593.692688 334.065125,588.666626 334.469391,583.558105 
	C335.776611,567.038940 336.808777,550.498108 338.174866,533.680237 
	C340.577148,532.869019 342.751495,532.343079 344.925873,531.817139 
z"/>
<path fill="#403E57" opacity="1.000000" stroke="none" 
	d="
M345.217773,531.584595 
	C342.751495,532.343079 340.577148,532.869019 337.741791,533.673828 
	C335.527985,533.865234 333.975189,533.777588 332.536072,533.696411 
	C331.428345,527.265442 330.726166,521.523499 338.470367,518.962219 
	C347.597382,517.033325 356.291138,515.068909 365.395020,513.098389 
	C375.491486,510.736023 385.191101,508.432892 394.861572,506.013489 
	C420.961609,499.483643 447.049286,492.904297 473.552673,486.323181 
	C495.088562,481.122955 516.157227,475.692596 537.376160,470.932251 
	C543.083313,469.651917 544.608521,466.804871 545.092285,461.676941 
	C545.333313,459.123108 547.185181,456.721283 548.308411,454.250702 
	C548.836487,454.353333 549.364502,454.455994 549.892578,454.558624 
	C546.496704,443.721069 541.736877,433.380432 533.624146,425.370117 
	C525.285156,417.136322 519.113770,407.634735 513.944519,397.378571 
	C506.857178,383.316650 500.144623,369.065857 493.202637,354.528870 
	C488.078644,341.380493 483.044220,328.590973 477.961639,315.820587 
	C473.994812,305.853638 467.584290,297.678802 457.506622,293.879059 
	C448.931183,290.645752 439.700775,289.149445 430.783875,286.480591 
	C430.865112,284.729034 430.922668,283.381592 431.419006,282.025177 
	C458.002991,284.172546 477.229370,294.137329 485.152008,320.635590 
	C487.315369,327.871155 490.895203,334.683167 493.824951,341.689545 
	C495.175110,345.222748 496.302856,348.861053 497.913879,352.270966 
	C504.932404,367.126312 511.922028,381.999908 519.261963,396.697144 
	C523.794800,405.773438 529.499084,413.994080 536.706299,421.406525 
	C541.925537,426.774445 546.119019,433.528687 549.344910,440.339630 
	C552.760986,447.552216 556.635986,454.423889 560.554749,461.331909 
	C562.039917,463.949860 563.441772,464.330841 566.083740,463.645721 
	C576.527466,460.937195 587.016968,458.405060 597.784729,455.587708 
	C619.854187,450.052216 641.630859,444.747040 663.401489,439.416840 
	C676.600891,436.185120 689.790771,432.914673 703.455627,429.545563 
	C704.475586,434.616455 705.409302,439.258514 706.431335,444.340027 
	C703.305176,445.172455 700.521729,446.327484 697.657654,446.584442 
	C692.701294,447.029175 690.906982,449.474121 690.212341,454.320160 
	C686.345276,481.299042 682.141418,508.229645 678.072327,535.593628 
	C675.732178,550.616882 673.356201,565.220642 671.020203,579.830688 
	C669.969360,586.402832 668.816040,592.967224 668.071655,599.575928 
	C667.725891,602.645996 666.439026,603.385315 663.588135,603.359497 
	C651.094971,603.246033 638.600037,603.326599 626.105774,603.326904 
	C548.140320,603.328613 470.174896,603.327087 392.209473,603.331238 
	C390.378174,603.331360 388.546844,603.384949 386.343628,603.578918 
	C383.664978,603.590393 381.358215,603.436462 378.490601,603.245117 
	C374.396881,577.848694 370.308716,552.486572 366.119263,526.496094 
	C358.967163,528.181274 352.238434,529.766602 345.217773,531.584595 
z"/>
<path fill="#FFFFFF" opacity="1.000000" stroke="none" 
	d="
M473.141846,486.344604 
	C447.049286,492.904297 420.961609,499.483643 394.861572,506.013489 
	C385.191101,508.432892 375.491486,510.736023 365.593475,512.825317 
	C368.919708,509.556549 373.072968,507.038147 375.881744,503.463409 
	C384.787903,492.128387 393.808533,480.798920 401.642242,468.725861 
	C412.651184,451.759247 423.942932,434.835205 431.108612,415.708252 
	C436.284302,401.893097 438.876556,387.845062 432.981262,373.535278 
	C429.735779,365.657532 424.369080,364.702026 419.233002,371.471344 
	C408.999115,384.959564 403.413452,400.614136 400.145355,417.013824 
	C399.050995,422.505402 397.452637,427.403625 393.337982,430.981049 
	C385.087463,438.154358 376.527710,444.971985 367.987976,451.531311 
	C365.940491,437.079010 364.000610,423.031799 362.382507,408.799957 
	C364.429199,402.965302 366.359924,397.366760 367.790405,391.643158 
	C368.484711,388.865204 366.379120,388.827026 364.317841,389.394775 
	C362.271454,389.958435 360.206207,390.453705 358.022888,390.605042 
	C354.560394,377.828094 351.224213,365.425049 347.888000,353.021973 
	C352.076050,350.187592 350.247131,345.531555 350.801086,341.852631 
	C353.283691,325.364899 354.855896,308.741699 357.213226,292.232635 
	C358.217865,285.196930 364.321564,282.033905 369.957855,279.268005 
	C374.541382,277.018707 379.559509,275.587311 384.480194,274.110718 
	C390.022369,272.447693 392.673584,266.373688 389.821838,261.286713 
	C387.564545,257.260162 384.803009,253.409653 383.273071,249.121460 
	C382.334656,246.491302 383.033447,243.141418 383.504211,240.195786 
	C383.779510,238.473328 385.009796,236.887009 385.885162,235.280136 
	C388.304413,230.839355 389.900238,227.145432 386.371002,221.698532 
	C381.449066,214.102280 383.756378,207.699936 391.654327,202.727737 
	C396.681091,199.563126 402.385620,197.455078 407.326569,194.179855 
	C411.943054,191.119675 416.511292,187.624069 420.093323,183.454605 
	C424.936462,177.817154 430.229919,180.643311 435.211243,181.764740 
	C440.840302,183.031998 446.093689,185.985992 451.726929,187.210846 
	C456.594147,188.269119 461.826782,188.554962 466.785980,188.060272 
	C473.528687,187.387726 478.703735,188.849319 482.829773,194.539871 
	C492.278351,207.571136 494.023895,221.838013 490.453094,237.128601 
	C489.625305,240.673370 488.656433,244.195541 488.043884,247.777939 
	C486.938995,254.239822 489.339233,259.840302 492.717377,265.152039 
	C498.134247,273.669434 498.137054,277.541534 491.968658,285.340210 
	C490.014587,287.810791 489.849457,289.246307 491.980347,291.636475 
	C497.490540,297.817078 497.871490,305.262695 496.859528,313.097351 
	C495.675110,322.267426 494.887238,331.488739 493.876160,341.188660 
	C490.895203,334.683167 487.315369,327.871155 485.152008,320.635590 
	C477.229370,294.137329 458.002991,284.172546 431.223206,281.747375 
	C427.658356,275.324005 417.111938,274.104248 410.998169,276.847443 
	C407.662567,278.344086 405.732391,280.883606 406.053802,284.665588 
	C406.397705,288.712372 409.133423,290.899323 412.711151,291.780151 
	C419.544006,293.462311 425.870697,292.662537 430.760162,286.884644 
	C439.700775,289.149445 448.931183,290.645752 457.506622,293.879059 
	C467.584290,297.678802 473.994812,305.853638 477.961639,315.820587 
	C483.044220,328.590973 488.078644,341.380493 492.870422,354.770355 
	C492.069275,358.617218 491.490448,361.849274 491.001984,365.094940 
	C489.799744,373.083344 489.136139,381.192139 487.333740,389.040741 
	C485.158905,398.510895 476.495819,402.898254 467.396790,399.984375 
	C465.456818,399.363129 463.498352,398.799500 462.455872,398.483978 
	C463.320282,410.273865 464.055084,421.749207 465.046295,433.202362 
	C465.543060,438.942505 465.510406,445.011108 467.462708,450.285004 
	C471.808441,462.024475 473.435242,473.981293 473.141846,486.344604 
z"/>
<path fill="#575A89" opacity="1.000000" stroke="none" 
	d="
M193.974045,603.191895 
	C193.791595,603.305969 193.609161,603.419983 192.707306,603.451782 
	C187.406113,603.224976 182.824341,603.080505 178.216858,602.478638 
	C177.145325,586.680725 176.099487,571.340210 175.471878,555.999390 
	C179.884842,555.204773 183.879562,554.410461 188.325348,553.526489 
	C189.233047,533.654785 190.061447,514.297852 191.023087,494.947510 
	C191.557022,484.203583 192.642197,473.478607 192.901794,462.731171 
	C193.463699,439.469452 193.782578,416.199493 193.920624,392.931244 
	C193.963791,385.652374 189.519455,380.252563 183.411469,378.771179 
	C184.605347,383.684326 186.770615,388.587708 186.818207,393.511566 
	C186.970581,409.281769 186.456360,425.063171 185.978195,440.833527 
	C185.445526,458.401642 184.639130,475.961273 184.011948,493.526733 
	C183.615234,504.637451 183.492233,515.760193 182.940338,526.862427 
	C182.498947,535.741943 181.595901,544.598450 180.900421,553.431458 
	C178.503830,554.073120 176.595322,554.584167 174.321716,555.179504 
	C172.994873,555.503052 172.043304,555.799133 171.069901,555.972900 
	C154.350845,558.957214 137.629089,561.926514 120.907928,564.899048 
	C116.261932,565.205261 114.868484,561.652832 114.117241,558.352783 
	C111.871086,548.485840 109.441055,538.596252 108.194992,528.577271 
	C102.846603,485.573608 101.218903,442.364105 102.106598,399.055542 
	C102.393410,385.062622 103.685638,371.244110 107.797104,357.695892 
	C114.073662,337.013153 126.918442,322.030029 145.347610,311.184967 
	C158.209076,303.616394 170.696014,295.411499 183.352280,287.494049 
	C189.760300,283.485352 196.652985,282.571289 204.643494,284.551453 
	C206.216202,285.838989 207.536041,286.729370 207.901398,287.914124 
	C209.100586,291.802734 209.953217,295.798248 210.930145,300.206696 
	C210.988449,301.656830 210.944489,302.675232 211.139160,303.645782 
	C215.574753,325.759979 220.066086,347.863068 224.484604,369.980652 
	C228.611710,390.639648 233.343277,411.252991 232.905106,432.492065 
	C232.535034,450.429626 232.180069,468.399902 230.772583,486.273315 
	C229.667114,500.311371 227.141068,514.253418 221.004333,527.229553 
	C209.458176,551.643860 201.062500,577.187195 193.974045,603.191895 
z"/>
<path fill="#403E57" opacity="1.000000" stroke="none" 
	d="
M214.014313,256.400269 
	C185.071167,256.677856 159.725327,247.853546 139.356186,226.670441 
	C125.341072,212.095261 117.489876,194.706100 116.076241,174.476974 
	C115.997757,173.353958 115.883453,172.233414 115.790077,171.160629 
	C78.019325,168.618866 57.281082,148.018799 59.386623,113.638962 
	C64.894295,137.854416 78.346878,152.385864 101.761887,156.732544 
	C98.682961,154.285095 95.420326,152.034103 92.556656,149.356445 
	C79.608772,137.249603 74.424294,122.301201 76.542740,104.733879 
	C76.756393,102.962212 76.678482,101.093613 76.378151,99.330948 
	C71.441338,70.357033 92.856972,42.681717 123.395256,40.182133 
	C106.908180,47.049049 95.565514,57.440739 90.426941,74.442429 
	C90.271629,75.322021 90.322372,75.605659 90.373123,75.889290 
	C90.668671,75.678947 90.964218,75.468605 91.259766,75.258263 
	C99.271118,68.928543 107.621758,63.441708 118.080208,61.817184 
	C139.997070,58.412811 160.225922,67.850739 171.396576,87.011848 
	C171.974045,88.002388 172.567566,88.983582 172.812698,89.395798 
	C183.783539,87.441689 194.285599,84.598953 204.935684,83.843864 
	C248.972382,80.721657 291.952850,107.331543 303.186981,149.289520 
	C303.612061,150.877090 303.748749,152.541901 303.685028,154.686188 
	C302.412384,154.531937 301.474518,153.862213 300.696808,153.306824 
	C291.442200,176.797791 272.201355,178.288773 250.995667,175.932678 
	C251.209488,187.893127 250.182846,199.424713 244.945541,210.740295 
	C243.419464,208.389740 242.482376,206.601334 241.226791,205.074890 
	C236.841904,199.744049 230.045364,199.653198 225.823029,205.081787 
	C224.132462,207.255310 222.839157,209.934174 222.064026,212.587219 
	C219.556870,221.168213 221.421448,228.989471 227.744629,236.588776 
	C218.139221,239.625580 216.824219,247.907349 214.690048,255.691559 
	C214.614059,255.968719 214.246155,256.165863 214.014313,256.400269 
z"/>
<path fill="#FEB9B9" opacity="1.000000" stroke="none" 
	d="
M214.004333,256.784332 
	C214.246155,256.165863 214.614059,255.968719 214.690048,255.691559 
	C216.824219,247.907349 218.139221,239.625580 227.744629,236.588776 
	C221.421448,228.989471 219.556870,221.168213 222.064026,212.587219 
	C222.839157,209.934174 224.132462,207.255310 225.823029,205.081787 
	C230.045364,199.653198 236.841904,199.744049 241.226791,205.074890 
	C242.482376,206.601334 243.419464,208.389740 244.945541,210.740295 
	C250.182846,199.424713 251.209488,187.893127 250.995667,175.932678 
	C272.201355,178.288773 291.442200,176.797791 300.696808,153.306824 
	C301.474518,153.862213 302.412384,154.531937 303.692810,155.103424 
	C304.035431,155.005188 303.977203,154.990829 303.911987,155.218903 
	C304.165649,155.858719 304.484528,156.270447 304.803375,156.682175 
	C311.985077,165.594070 317.540070,175.296112 319.422424,186.781738 
	C323.916656,214.204514 310.883514,239.930161 286.183777,251.384109 
	C282.069458,253.292023 279.452118,255.482803 278.888794,260.246368 
	C277.840057,269.114288 276.038086,277.899261 275.168213,286.779327 
	C274.790863,290.631531 275.945953,294.633850 276.659302,299.233215 
	C279.863037,309.111938 282.106384,318.651489 289.011475,326.459503 
	C292.030518,340.075806 287.664307,346.570129 274.277527,348.100830 
	C269.880981,348.603577 265.276062,348.620148 260.919891,347.913422 
	C239.541031,344.445007 223.597427,333.741364 215.716644,312.795563 
	C214.086227,308.462158 212.529633,304.101044 210.939026,299.752686 
	C209.953217,295.798248 209.100586,291.802734 207.901398,287.914124 
	C207.536041,286.729370 206.216202,285.838989 205.048370,284.602417 
	C207.840286,275.316803 210.917313,266.242615 214.004333,256.784332 
z"/>
<path fill="#585B8A" opacity="1.000000" stroke="none" 
	d="
M288.989349,326.048553 
	C282.106384,318.651489 279.863037,309.111938 276.937622,299.511719 
	C291.338837,304.499237 305.933289,309.367340 320.021912,315.414001 
	C330.570435,319.941254 338.993561,327.346497 342.602539,338.994080 
	C344.019592,343.567474 345.744629,348.045441 347.608704,352.794434 
	C351.224213,365.425049 354.560394,377.828094 358.001709,391.006897 
	C359.424835,397.516632 360.742798,403.250610 362.060760,408.984619 
	C364.000610,423.031799 365.940491,437.079010 367.836365,451.851257 
	C367.408661,452.887329 367.068024,453.287659 366.635040,453.496521 
	C349.548767,461.737762 339.730316,475.330872 337.915283,494.133453 
	C337.125244,502.317719 337.947235,510.657562 338.037109,518.926758 
	C330.726166,521.523499 331.428345,527.265442 332.536072,533.696411 
	C333.975189,533.777588 335.527985,533.865234 337.513855,533.959229 
	C336.808777,550.498108 335.776611,567.038940 334.469391,583.558105 
	C334.065125,588.666626 332.665588,593.692688 332.186157,598.800171 
	C331.846283,602.420715 330.397827,603.928101 326.483887,602.880981 
	C326.374664,601.443787 326.792816,600.479126 326.815430,599.505310 
	C327.209015,582.558777 328.039185,565.601807 327.713257,548.667542 
	C327.539886,539.659302 326.474182,530.463501 321.429932,522.323120 
	C320.212738,520.358765 320.100159,517.556213 319.949432,515.110168 
	C319.093750,501.225189 323.710907,488.530212 329.414124,476.319885 
	C335.679413,462.906281 339.745331,449.194061 340.101135,434.272430 
	C340.638306,411.745300 334.607819,390.668518 326.943298,369.886475 
	C325.514008,366.011108 324.535889,361.461273 321.855316,358.644928 
	C311.221985,347.472992 299.995819,336.865326 288.989349,326.048553 
z"/>
<path fill="#FEB8B8" opacity="1.000000" stroke="none" 
	d="
M175.053650,555.999756 
	C176.099487,571.340210 177.145325,586.680725 177.728729,602.505005 
	C159.570862,602.992615 141.875397,602.996338 124.161247,602.544067 
	C123.401451,593.386169 122.660347,584.684326 121.919235,575.982422 
	C121.604248,572.583313 121.289253,569.184204 120.941101,565.342041 
	C137.629089,561.926514 154.350845,558.957214 171.069901,555.972900 
	C172.043304,555.799133 172.994873,555.503052 174.395538,555.412964 
	C174.834488,555.562012 175.053650,555.999756 175.053650,555.999756 
z"/>
<path fill="#5C5E8C" opacity="1.000000" stroke="none" 
	d="
M121.626045,576.167358 
	C122.660347,584.684326 123.401451,593.386169 123.727722,602.578003 
	C122.187050,603.231140 121.061195,603.394348 119.935349,603.557495 
	C116.945091,603.006287 113.954826,602.455017 110.948822,601.454651 
	C114.399666,592.787781 117.866257,584.570068 121.626045,576.167358 
z"/>
<path fill="#403E57" opacity="1.000000" stroke="none" 
	d="
M304.773804,156.428131 
	C304.484528,156.270447 304.165649,155.858719 303.919922,155.189911 
	C304.243439,155.346588 304.493805,155.760345 304.773804,156.428131 
z"/>
<path fill="#C9AFBD" opacity="1.000000" stroke="none" 
	d="
M120.298050,603.726196 
	C121.061195,603.394348 122.187050,603.231140 123.746422,603.033936 
	C141.875397,602.996338 159.570862,602.992615 177.754425,602.962524 
	C182.824341,603.080505 187.406113,603.224976 192.399033,603.547241 
	C177.340866,603.808472 161.871613,603.896912 146.402267,603.972412 
	C141.573303,603.995972 136.744171,603.984741 131.446152,604.035095 
	C127.538376,604.018799 124.099571,603.956848 120.298050,603.726196 
z"/>
<path fill="#6C63FF" opacity="1.000000" stroke="none" 
	d="
M289.011475,326.459503 
	C299.995819,336.865326 311.221985,347.472992 321.855316,358.644928 
	C324.535889,361.461273 325.514008,366.011108 326.943298,369.886475 
	C334.607819,390.668518 340.638306,411.745300 340.101135,434.272430 
	C339.745331,449.194061 335.679413,462.906281 329.414124,476.319885 
	C323.710907,488.530212 319.093750,501.225189 319.949432,515.110168 
	C320.100159,517.556213 320.212738,520.358765 321.429932,522.323120 
	C326.474182,530.463501 327.539886,539.659302 327.713257,548.667542 
	C328.039185,565.601807 327.209015,582.558777 326.815430,599.505310 
	C326.792816,600.479126 326.374664,601.443787 326.051910,602.848755 
	C321.821625,603.277954 317.680054,603.265686 313.538452,603.265015 
	C273.998474,603.258850 234.458527,603.254517 194.446304,603.220825 
	C201.062500,577.187195 209.458176,551.643860 221.004333,527.229553 
	C227.141068,514.253418 229.667114,500.311371 230.772583,486.273315 
	C232.180069,468.399902 232.535034,450.429626 232.905106,432.492065 
	C233.343277,411.252991 228.611710,390.639648 224.484604,369.980652 
	C220.066086,347.863068 215.574753,325.759979 211.139160,303.645782 
	C210.944489,302.675232 210.988449,301.656830 210.930145,300.206696 
	C212.529633,304.101044 214.086227,308.462158 215.716644,312.795563 
	C223.597427,333.741364 239.541031,344.445007 260.919891,347.913422 
	C265.276062,348.620148 269.880981,348.603577 274.277527,348.100830 
	C287.664307,346.570129 292.030518,340.075806 289.011475,326.459503 
z"/>
<path fill="#F1F1F1" opacity="1.000000" stroke="none" 
	d="
M473.552673,486.323181 
	C473.435242,473.981293 471.808441,462.024475 467.462708,450.285004 
	C465.510406,445.011108 465.543060,438.942505 465.046295,433.202362 
	C464.055084,421.749207 463.320282,410.273865 462.455872,398.483978 
	C463.498352,398.799500 465.456818,399.363129 467.396790,399.984375 
	C476.495819,402.898254 485.158905,398.510895 487.333740,389.040741 
	C489.136139,381.192139 489.799744,373.083344 491.001984,365.094940 
	C491.490448,361.849274 492.069275,358.617218 492.939240,355.137482 
	C500.144623,369.065857 506.857178,383.316650 513.944519,397.378571 
	C519.113770,407.634735 525.285156,417.136322 533.624146,425.370117 
	C541.736877,433.380432 546.496704,443.721069 549.892578,454.558624 
	C549.364502,454.455994 548.836487,454.353333 548.308411,454.250702 
	C547.185181,456.721283 545.333313,459.123108 545.092285,461.676941 
	C544.608521,466.804871 543.083313,469.651917 537.376160,470.932251 
	C516.157227,475.692596 495.088562,481.122955 473.552673,486.323181 
z"/>
<path fill="#FEB9B9" opacity="1.000000" stroke="none" 
	d="
M338.470398,518.962219 
	C337.947235,510.657562 337.125244,502.317719 337.915283,494.133453 
	C339.730316,475.330872 349.548767,461.737762 366.635040,453.496521 
	C367.068024,453.287659 367.408661,452.887329 367.943970,452.256348 
	C376.527710,444.971985 385.087463,438.154358 393.337982,430.981049 
	C397.452637,427.403625 399.050995,422.505402 400.145355,417.013824 
	C403.413452,400.614136 408.999115,384.959564 419.233002,371.471344 
	C424.369080,364.702026 429.735779,365.657532 432.981262,373.535278 
	C438.876556,387.845062 436.284302,401.893097 431.108612,415.708252 
	C423.942932,434.835205 412.651184,451.759247 401.642242,468.725861 
	C393.808533,480.798920 384.787903,492.128387 375.881744,503.463409 
	C373.072968,507.038147 368.919708,509.556549 365.183350,512.831421 
	C356.291138,515.068909 347.597382,517.033325 338.470398,518.962219 
z"/>
<path fill="#7067FE" opacity="1.000000" stroke="none" 
	d="
M430.783875,286.480591 
	C425.870697,292.662537 419.544006,293.462311 412.711151,291.780151 
	C409.133423,290.899323 406.397705,288.712372 406.053802,284.665588 
	C405.732391,280.883606 407.662567,278.344086 410.998169,276.847443 
	C417.111938,274.104248 427.658356,275.324005 430.784424,281.756287 
	C430.922668,283.381592 430.865112,284.729034 430.783875,286.480591 
z"/>
<path fill="#EEEEEF" opacity="1.000000" stroke="none" 
	d="
M362.382538,408.799957 
	C360.742798,403.250610 359.424835,397.516632 358.128052,391.380798 
	C360.206207,390.453705 362.271454,389.958435 364.317841,389.394775 
	C366.379120,388.827026 368.484711,388.865204 367.790405,391.643158 
	C366.359924,397.366760 364.429199,402.965302 362.382538,408.799957 
z"/>
<path fill="#4E517B" opacity="1.000000" stroke="none" 
	d="
M175.471878,555.999390 
	C175.053650,555.999756 174.834488,555.562012 174.760651,555.328613 
	C176.595322,554.584167 178.503830,554.073120 180.900421,553.431458 
	C181.595901,544.598450 182.498947,535.741943 182.940338,526.862427 
	C183.492233,515.760193 183.615234,504.637451 184.011948,493.526733 
	C184.639130,475.961273 185.445526,458.401642 185.978195,440.833527 
	C186.456360,425.063171 186.970581,409.281769 186.818207,393.511566 
	C186.770615,388.587708 184.605347,383.684326 183.411469,378.771179 
	C189.519455,380.252563 193.963791,385.652374 193.920624,392.931244 
	C193.782578,416.199493 193.463699,439.469452 192.901794,462.731171 
	C192.642197,473.478607 191.557022,484.203583 191.023087,494.947510 
	C190.061447,514.297852 189.233047,533.654785 188.325348,553.526489 
	C183.879562,554.410461 179.884842,555.204773 175.471878,555.999390 
z"/>
<path fill="#F2F2F2" opacity="1.000000" stroke="none" 
	d="
M91.091156,75.090820 
	C90.964218,75.468605 90.668671,75.678947 90.373123,75.889290 
	C90.322372,75.605659 90.271629,75.322021 90.401611,74.814957 
	C90.582344,74.591515 90.922546,74.923370 91.091156,75.090820 
z"/>
</svg>